<svg width="665" height="651" viewBox="0 0 665 651" fill="none" xmlns="http://www.w3.org/2000/svg">
<path d="M630.927 158.175C618.469 145.615 603.05 136.22 585.997 130.808C583.751 96.8042 571.395 65.1488 550.666 41.0499C527.996 14.6023 497.771 0 465.707 0C421.389 0 380.748 28.3877 359.712 74.2369L360.427 74.5433C310.289 96.9063 277 153.171 277 216.992C277 251.711 286.803 284.49 305.081 311.652C321.42 335.853 343.17 353.723 368.698 362.709V374.657C368.596 384.766 372.477 394.467 379.625 401.615C383.709 405.699 388.611 408.763 394.023 410.601C392.083 413.562 389.019 416.217 384.832 419.689C376.97 426.224 366.248 435.108 366.248 452.059C366.248 469.521 377.072 478.507 385.037 485.042C392.389 491.169 396.167 494.641 396.167 501.789C396.167 507.405 400.762 512 406.379 512C411.995 512 416.59 507.405 416.59 501.789C416.59 484.736 405.868 475.852 398.005 469.418C390.551 463.189 386.568 459.615 386.568 452.161C386.568 445.013 390.347 441.541 397.699 435.414C404.132 430.105 412.403 423.161 415.365 411.52C425.984 408.967 434.868 402.023 439.974 392.322C457.844 402.227 478.471 407.435 500.221 407.435C507.369 407.435 514.517 406.925 521.563 405.801C555.567 400.696 588.652 383.54 614.691 357.501C643.283 328.909 660.745 292.659 664.012 255.387C667.382 217.401 655.639 182.886 630.927 158.175ZM465.809 20.4228C491.848 20.4228 516.458 32.4723 535.247 54.3247C551.789 73.7264 562.205 98.7443 565.166 126.009C547.602 123.66 529.732 124.477 512.577 128.664L512.986 130.195C502.57 112.223 488.376 96.702 471.323 84.8568C452.33 71.6841 429.763 64.6382 406.583 64.5361C400.252 64.5361 393.921 65.0467 387.59 66.1699C406.379 37.578 435.073 20.4228 465.809 20.4228ZM423.942 374.657C423.942 374.963 423.942 375.371 423.942 375.78C423.942 375.984 423.942 376.086 423.942 376.29C423.227 385.379 415.569 392.322 406.481 392.22C401.886 392.22 397.392 390.382 394.125 387.114C390.857 383.745 389.121 379.252 389.223 374.657V367.917C394.942 368.836 400.762 369.347 406.583 369.347C412.403 369.347 418.224 368.836 423.942 367.917V374.657ZM430.988 345.554C414.956 350.047 397.903 350.047 381.871 345.554C358.487 339.019 337.145 322.885 321.93 300.215C306.205 276.831 297.525 247.218 297.525 216.992C297.525 188.094 305.081 160.728 319.377 137.752C333.061 115.797 352.36 99.2549 373.906 91.0858C384.322 87.1033 395.35 85.061 406.481 85.061C444.263 85.061 478.777 108.241 498.894 147.146C509.718 167.978 515.436 192.179 515.436 216.992C515.436 247.218 506.757 276.831 490.929 300.215C475.714 322.885 454.474 338.917 430.988 345.554ZM600.395 343.103C554.955 388.544 488.274 400.185 444.365 371.083V362.607C468.872 353.621 491.644 335.751 507.88 311.55C526.158 284.388 535.859 251.711 535.859 216.89C535.961 193.098 531.162 169.407 521.665 147.555C539.535 143.981 557.303 144.287 573.539 148.474C589.775 152.456 604.684 160.932 616.529 172.777C659.111 215.256 651.861 291.638 600.395 343.103Z" fill="#32D3D9"/>
<line x1="1.31134e-07" y1="642.5" x2="554" y2="642.5" stroke="white" stroke-width="3"/>
<rect x="339.127" y="634" width="214.872" height="16.349" fill="#32D3D9"/>
</svg>
