<svg width="703" height="654" viewBox="0 0 703 654" fill="none" xmlns="http://www.w3.org/2000/svg">
<path d="M701.065 255.884C695.954 240.431 681.597 229.967 665.414 229.967H657.627C655.436 199.548 644.729 171.319 627.086 150.269C608.835 128.124 582.674 113.888 554.081 110.603C552.742 80.7926 528.164 57.3092 498.353 57.1875H486.307C483.631 57.1875 470.368 55.7274 465.988 35.0426C461.729 14.7227 443.843 0.121676 423.036 0H406.975C385.438 0 364.875 8.88232 350.152 24.4568C335.186 40.153 326.912 61.0812 326.912 82.8611C326.912 92.3518 328.494 101.842 331.658 110.846C304.281 114.497 279.094 128.124 261.207 149.174C243.078 170.468 232.127 198.331 229.937 229.967H228.598C207.792 229.967 190.879 246.88 191.001 267.686C191.001 277.664 195.016 287.154 201.951 294.212C204.385 296.767 207.184 298.835 210.225 300.539C210.104 302.121 210.347 303.702 210.834 305.284L262.546 462.489C271.55 489.988 297.223 508.604 326.182 508.604H561.381C590.34 508.604 616.014 489.988 625.018 462.489L676.73 305.406C676.973 304.797 677.095 304.189 677.216 303.581C696.928 297.01 707.635 275.595 701.065 255.884ZM367.795 41.3697C378.016 30.5406 392.13 24.4568 407.097 24.3351H423.158C432.405 24.4568 440.436 31.0273 442.261 40.0313C449.075 72.762 473.166 81.5227 486.307 81.5227H498.475C515.875 81.6443 529.867 95.637 529.867 113.037C529.867 113.888 529.867 114.983 529.746 116.2C529.746 117.052 529.502 117.782 529.381 118.634C529.259 118.877 529.259 118.999 529.259 119.242C526.46 132.018 514.293 141.144 500.3 141.144H407.097C388.237 141.144 370.837 131.288 360.495 114.618C346.015 91.3784 349.057 61.3245 367.795 41.3697ZM344.312 134.087C359.156 153.798 382.396 165.479 407.097 165.479H500.3C521.837 165.479 541.061 153.068 549.579 134.573C573.305 137.128 593.504 147.836 608.47 165.844C622.584 182.635 631.223 205.632 633.292 229.967H254.272C258.896 175.213 294.303 136.398 344.312 134.087ZM601.899 454.945C596.18 472.466 579.754 484.391 561.26 484.269H326.304C307.809 484.269 291.505 472.466 285.664 454.945L236.507 305.406H651.178L601.899 454.945ZM665.414 281.071H228.598C227.747 281.071 226.773 280.949 225.922 280.827C223.366 280.341 221.055 279.002 219.229 277.177C213.997 271.945 213.997 263.428 219.229 258.317C221.663 255.884 225.07 254.424 228.598 254.424H665.414C672.836 254.424 678.798 260.386 678.798 267.808C678.798 275.23 672.836 281.071 665.414 281.071Z" fill="#32D3D9"/>
<line x1="1.31134e-07" y1="645.5" x2="554" y2="645.5" stroke="white" stroke-width="3"/>
<rect x="339.127" y="637" width="214.872" height="16.349" fill="#32D3D9"/>
</svg>
