<svg width="703" height="636" viewBox="0 0 703 636" fill="none" xmlns="http://www.w3.org/2000/svg">
<path d="M679.517 347.321V308.735C678.927 206.784 612.021 117.105 514.318 87.7233C522.342 48.0756 496.618 9.37196 456.971 1.46602C417.323 -6.55791 378.619 19.1659 370.714 58.8135C368.354 70.6134 368.944 82.7673 372.366 94.3312C327.998 107.783 290.356 133.271 262.626 168.553C231.947 207.728 215.781 256.344 215.781 309.325V346.967C200.441 355.463 190.883 371.629 191.001 389.211V438.416C191.119 465.084 212.831 486.678 239.499 486.678H239.617H654.265C680.933 486.914 702.763 465.32 702.999 438.652V438.534V389.329C703.117 372.101 694.149 356.171 679.517 347.321ZM396.437 54.9196C403.871 35.9217 422.161 23.5318 442.457 23.5318C469.833 23.5318 492.017 45.7157 492.135 73.2094C492.135 79.4634 490.955 85.7173 488.595 91.6173C478.447 117.105 449.537 129.495 424.167 119.347C398.679 109.199 386.289 80.2894 396.437 54.9196ZM239.381 309.325C239.381 215.752 295.43 140.705 382.985 115.807C406.467 148.729 452.251 156.281 485.055 132.799C493.55 126.781 500.63 118.875 505.822 109.907C547.004 122.061 583.466 146.487 610.251 179.881C639.515 216.46 655.563 261.89 655.799 308.735V340.595C654.619 340.595 654.619 340.241 654.265 340.241H239.735C239.617 340.241 239.381 340.595 239.381 340.595V309.325V309.325ZM679.517 438.298C679.399 451.986 668.307 462.96 654.619 462.96C654.501 462.96 654.501 462.96 654.383 462.96H239.735C226.047 463.196 214.837 452.222 214.601 438.534C214.601 438.416 214.601 438.416 214.601 438.298V389.093C214.601 378.237 221.563 368.679 231.829 365.375C231.829 365.375 231.947 365.257 231.947 365.139C234.425 364.195 237.139 363.723 239.735 363.723H654.383C657.097 363.723 659.811 364.195 662.289 365.257C662.407 365.257 662.407 365.375 662.525 365.375C672.673 368.797 679.517 378.355 679.517 389.093V438.298V438.298Z" fill="#32D3D9"/>
<line x1="1.31134e-07" y1="627.5" x2="554" y2="627.5" stroke="white" stroke-width="3"/>
<rect x="339.127" y="619" width="214.872" height="16.349" fill="#32D3D9"/>
</svg>
