<svg width="703" height="654" viewBox="0 0 703 654" fill="none" xmlns="http://www.w3.org/2000/svg">
<path d="M452.793 0H302.36C286.467 0 273.664 13.3547 273.664 29.2478V77.9206C273.664 92.4893 284.591 104.74 299.049 106.396V153.082C298.939 166.657 293.531 179.571 283.928 189.173L215.389 257.381L215.279 257.491C200.6 272.391 191.991 292.257 191.108 313.117C190.004 334.087 197.399 354.616 211.526 370.068C226.426 386.402 247.396 395.784 269.47 396.115C270.022 396.115 270.574 396.115 271.126 396.115C292.427 396.225 312.845 387.727 327.855 372.716L436.569 272.281C451.358 258.374 459.857 238.839 459.857 218.42L459.636 149.992L459.305 105.844C472.218 102.754 481.268 91.1649 481.158 77.9206V29.2478C481.158 13.3547 468.686 0 452.793 0ZM388.448 21.9634H410.522V84.8738H388.448V21.9634ZM344.3 21.9634H366.374V84.8738H344.3V21.9634ZM295.738 77.8102V29.1374C295.738 25.4953 298.607 21.9634 302.36 21.9634H322.226V84.8738H302.36C298.607 84.6531 295.628 81.5628 295.738 77.8102ZM312.514 356.602C312.404 356.713 312.293 356.823 312.183 356.934C289.226 379.78 252.142 379.78 229.296 356.823C228.744 356.271 228.192 355.609 227.64 355.057C207.001 332.652 208.436 295.789 230.841 272.943L299.49 204.845C313.287 191.159 321.012 172.507 321.123 153.082V106.948H437.452L437.562 143.48L417.144 153.965C376.307 175.487 360.635 225.926 382.047 266.762L391.207 283.869L312.514 356.602ZM421.338 255.946L407.873 268.418L401.471 256.387C385.799 226.367 397.277 189.173 427.298 173.39L437.562 167.982L437.673 218.31C437.783 232.658 431.823 246.344 421.338 255.946ZM459.084 77.8102C459.084 81.4524 456.546 84.8738 452.793 84.8738H432.596V21.9634H452.793C456.435 21.9634 459.084 25.3849 459.084 29.1374V77.8102Z" fill="#32D3D9"/>
<path d="M674.414 89.2886C674.304 89.2886 674.304 89.2886 674.193 89.2886H523.65C508.198 89.1782 495.616 101.65 495.506 117.102C495.506 117.322 495.506 117.433 495.506 117.653V166.326C495.506 181.005 505.439 193.146 519.787 194.912V241.488C519.898 255.063 514.6 268.086 504.998 277.689L436.569 345.897C421.89 360.797 413.281 380.553 412.398 401.523C411.294 422.493 418.689 443.022 432.816 458.584C447.716 474.808 468.686 484.3 490.87 484.631C491.422 484.631 491.974 484.631 492.416 484.631C513.717 484.741 534.135 476.243 549.145 461.232L634.902 381.987L657.859 360.686C672.759 346.78 681.257 327.355 681.257 306.936L681.036 238.508L680.926 194.36C693.839 191.27 703 179.681 703 166.326V117.653C702.889 101.981 690.087 89.2886 674.414 89.2886ZM610.29 111.362H632.364V173.169H610.29V111.362ZM566.142 111.362H588.216V173.169H566.142V111.362ZM517.58 166.326V117.653C517.359 114.453 519.787 111.583 523.098 111.362C523.319 111.362 523.54 111.362 523.65 111.362H544.068V173.169H523.65C520.008 173.169 517.58 170.079 517.58 166.326ZM533.914 445.119C533.804 445.229 533.694 445.339 533.583 445.45C522.436 456.707 507.095 462.888 491.202 462.557C475.088 462.336 459.857 455.493 449.041 443.573C428.402 421.058 429.836 384.195 452.241 361.459L520.56 293.251C534.356 279.565 542.082 260.913 541.861 241.488V195.243H658.742L658.852 231.775L638.544 242.481C597.708 263.892 582.035 314.442 603.337 355.278L612.497 372.496L533.914 445.119ZM642.738 344.572L629.273 357.044L622.872 345.014C607.199 314.993 618.788 277.909 648.809 262.127L658.963 256.829L659.073 307.157C659.073 321.284 653.223 334.86 642.738 344.572ZM680.926 117.653V166.326C680.926 170.079 677.946 173.059 674.193 173.169H654.437V111.362H674.193C677.725 111.142 680.705 113.901 680.926 117.433C680.926 117.543 680.926 117.543 680.926 117.653Z" fill="#32D3D9"/>
<line x1="1.31134e-07" y1="645.5" x2="554" y2="645.5" stroke="white" stroke-width="3"/>
<rect x="339.127" y="637" width="214.872" height="16.349" fill="#32D3D9"/>
</svg>
